<svg width="32" height="32" viewBox="0 0 32 32" fill="none" xmlns="http://www.w3.org/2000/svg">
<rect x="12.606" y="19.8485" width="6.78788" height="4.84848" fill="white"/>
<path d="M19.4783 22.2754C27.8849 20.7478 33.7445 14.2687 31.5286 9.94566C30.3178 7.57288 27.3024 8.12545 27.3024 8.12545C27.3024 8.12545 27.9078 5.40596 25.1208 4.06247C22.3338 2.71898 20.0266 4.59336 20.0266 4.59336C20.0266 4.59336 18.9986 2.40477 16.006 2.39394H15.9946H15.9832C12.9906 2.40477 11.9626 4.59336 11.9626 4.59336C11.9626 4.59336 9.66678 2.69731 6.8798 4.05163C4.09282 5.39513 4.69819 8.11461 4.69819 8.11461C4.69819 8.11461 1.69419 7.57288 0.472027 9.93482C-1.74385 14.2578 4.10424 20.7369 12.5223 22.2646C5.80612 22.5355 1.02028 23.6189 1.02028 24.9082C1.02028 26.3926 7.71361 27.6061 15.9832 27.6061H15.9946H16.006C24.2756 27.6061 30.9689 26.3926 30.9689 24.9082C30.9803 23.6189 26.1831 22.5355 19.4783 22.2754ZM16.0289 24.1715C14.6354 24.1715 13.516 23.3372 13.516 22.2971C13.516 21.257 14.6468 20.4227 16.0289 20.4227C17.4224 20.4227 18.5417 21.257 18.5417 22.2971C18.5417 23.3372 17.4224 24.1715 16.0289 24.1715Z" fill="url(#paint0_linear_3035_1000)"/>
<defs>
<linearGradient id="paint0_linear_3035_1000" x1="16" y1="2.39394" x2="16" y2="27.6061" gradientUnits="userSpaceOnUse">
<stop stop-color="#545BFF"/>
<stop offset="1" stop-color="#8CD6FF"/>
</linearGradient>
</defs>
</svg>
